G04 DesignSpark PCB PRO Gerber Version 10.1 Build 5299*
G04 #@! TF.Part,Single*
G04 #@! TF.FileFunction,Copper,L2,Bot*
G04 #@! TF.FilePolarity,Positive*
%FSLAX35Y35*%
%MOIN*%
G04 #@! TA.AperFunction,ComponentPad*
%ADD19R,0.06000X0.06000*%
%ADD14R,0.06496X0.06496*%
%ADD16R,0.07500X0.07500*%
G04 #@! TD.AperFunction*
%ADD13C,0.00450*%
%ADD70C,0.00500*%
%ADD11C,0.01000*%
%ADD71C,0.01500*%
%ADD10C,0.02500*%
G04 #@! TA.AperFunction,ViaPad*
%ADD12C,0.03200*%
G04 #@! TA.AperFunction,ComponentPad*
%ADD15C,0.06496*%
%ADD18C,0.06969*%
%ADD17C,0.07500*%
G04 #@! TD.AperFunction*
X0Y0D02*
D02*
D10*
X25250Y102003D02*
X40522D01*
Y102253D01*
X55772D01*
X25250Y222250D02*
X75025D01*
X75272Y222003D01*
X25250Y232250D02*
Y222250D01*
X25272Y62003D02*
X35272D01*
Y42003D02*
X45272D01*
X35272D02*
X25272D01*
X35272Y52003D02*
X25272D01*
X45272Y42003D02*
X60250D01*
Y40250D01*
X75272D01*
X45272Y52003D02*
X35272D01*
X45272Y62003D02*
X35272D01*
X45272D02*
X51812D01*
X67250Y77441D01*
X88441D01*
X101250Y90250D01*
Y206705D01*
X132728Y238183D01*
X138842D01*
X164022Y213003D01*
X75272Y60250D02*
X62769D01*
X54522Y52003D01*
X45272D01*
X75272Y167830D02*
X67144Y159702D01*
Y113625D01*
X55772Y102253D01*
X75272Y177830D02*
Y167830D01*
Y187830D02*
Y177830D01*
Y222003D02*
X71380D01*
X65250Y215874D01*
Y193959D01*
X71380Y187830D01*
X75272D01*
X129163Y137003D02*
Y118628D01*
X135272Y40250D02*
X129163Y46359D01*
Y118628D01*
X135272Y137003D02*
X129163D01*
X135272Y212003D02*
X129163Y205894D01*
Y137003D01*
X135272Y232003D02*
X141515Y225760D01*
Y218246D01*
X135272Y212003D01*
X164022Y213003D02*
X163470Y212451D01*
Y212346D01*
X188626Y237502D01*
X214773D01*
X220272Y232003D01*
X164022Y213003D02*
X154139Y203120D01*
Y165870D01*
X135272Y147003D01*
X210272Y152003D02*
X142467Y84198D01*
Y67445D01*
X135272Y60250D01*
X220272Y222003D02*
Y232003D01*
D02*
D11*
X22266Y102003D02*
X20266D01*
X22266Y222250D02*
X20266D01*
X22266Y232250D02*
X20266D01*
X22772Y42003D02*
X20772D01*
X25250Y99019D02*
Y97019D01*
Y104987D02*
Y106987D01*
Y219266D02*
Y217266D01*
Y225234D02*
Y227234D01*
Y229266D02*
Y227266D01*
Y235234D02*
Y237234D01*
X25272Y39503D02*
Y37503D01*
Y44503D02*
Y46503D01*
X27772Y42003D02*
X29772D01*
X28234Y102003D02*
X30234D01*
X28234Y222250D02*
X30234D01*
X28234Y232250D02*
X30234D01*
X32772Y42003D02*
X30772D01*
X35272Y39503D02*
Y37503D01*
Y44503D02*
Y46503D01*
X37772Y42003D02*
X39772D01*
X42772D02*
X40772D01*
X45272Y39503D02*
Y37503D01*
Y44503D02*
Y46503D01*
X47772Y42003D02*
X49772D01*
X53272Y102253D02*
X51272D01*
X55772Y99753D02*
Y97753D01*
Y104753D02*
Y106753D01*
X58272Y102253D02*
X60272D01*
X72524Y40250D02*
X70524D01*
X72524Y167830D02*
X70524D01*
X72524Y177830D02*
X70524D01*
X72524Y187830D02*
X70524D01*
X72974Y219705D02*
X71560Y218291D01*
X72974Y224301D02*
X71560Y225715D01*
X75272Y37502D02*
Y35502D01*
Y42998D02*
Y44998D01*
Y165082D02*
Y163082D01*
Y170578D02*
Y172578D01*
Y175082D02*
Y173082D01*
Y180578D02*
Y182578D01*
Y185082D02*
Y183082D01*
Y190578D02*
Y192578D01*
X77570Y219705D02*
X78984Y218291D01*
X77570Y224301D02*
X78984Y225715D01*
X78020Y40250D02*
X80020D01*
X78020Y167830D02*
X80020D01*
X78020Y177830D02*
X80020D01*
X78020Y187830D02*
X80020D01*
X131876Y133607D02*
X130022Y131753D01*
X131876Y140400D02*
X130022Y142253D01*
X132524Y40250D02*
X130524D01*
X132974Y209705D02*
X131560Y208291D01*
X132974Y214301D02*
X131560Y215715D01*
X132974Y229705D02*
X131560Y228291D01*
X135272Y20250D02*
X162434Y47412D01*
Y70881D01*
X208807Y117254D01*
X212432D01*
X215021Y119843D01*
Y137254D01*
X210272Y142003D01*
X135272Y37502D02*
Y35502D01*
Y42998D02*
Y44998D01*
Y70250D02*
Y83174D01*
X185833Y133735D01*
X137570Y209705D02*
X138984Y208291D01*
X137570Y214301D02*
X138984Y215715D01*
X137570Y229705D02*
X138984Y228291D01*
X138020Y40250D02*
X140020D01*
X138669Y133607D02*
X140522Y131753D01*
X138669Y140400D02*
X140522Y142253D01*
X207524Y42003D02*
X205524D01*
X207524Y192003D02*
X205524D01*
X208329Y110060D02*
X206915Y108646D01*
X210272Y39255D02*
Y37255D01*
Y44751D02*
Y46751D01*
Y102003D02*
X203869Y95600D01*
X203110D01*
X210272Y122003D02*
Y124250D01*
X145250Y57228D01*
Y37254D01*
X138246Y30250D01*
X135272D01*
X210272Y132003D02*
X206250D01*
X200250Y126003D01*
Y119250D01*
X141250Y60250D01*
Y50250D01*
X135272D01*
X210272Y194751D02*
Y196751D01*
Y202003D02*
X183242Y174973D01*
X180460D01*
X210272Y212003D02*
X210180D01*
X165180Y167003D01*
X210272Y222003D02*
Y224253D01*
X158661Y172642D01*
Y157003D01*
X212215Y113946D02*
X213630Y115361D01*
X213020Y42003D02*
X215020D01*
X213020Y192003D02*
X215020D01*
X217524Y72003D02*
X215524D01*
X217524Y92003D02*
X215524D01*
X217524Y142003D02*
X215524D01*
X217524Y172003D02*
X215524D01*
X217524Y212003D02*
X215524D01*
X220272Y69255D02*
Y67255D01*
Y74751D02*
Y76751D01*
Y89255D02*
Y87255D01*
Y94751D02*
Y96751D01*
Y112003D02*
X215021Y106752D01*
X207931D01*
X173203Y72024D01*
Y49219D01*
X139235Y15250D01*
X128268D01*
X75272Y68246D01*
Y70250D01*
X220272Y139255D02*
Y137255D01*
Y144751D02*
Y146751D01*
Y169255D02*
Y167255D01*
Y174751D02*
Y176751D01*
Y192003D02*
X215272Y187003D01*
X204122D01*
X187675Y170557D01*
X220272Y209255D02*
Y207255D01*
Y214751D02*
Y216751D01*
X223020Y72003D02*
X225020D01*
X223020Y92003D02*
X225020D01*
X223020Y142003D02*
X225020D01*
X223020Y172003D02*
X225020D01*
X223020Y212003D02*
X225020D01*
D02*
D12*
X158661Y157003D03*
X165180Y167003D03*
X180460Y174973D03*
X185833Y133735D03*
X187675Y170557D03*
X187772Y52003D03*
X203110Y95600D03*
D02*
D13*
X15804Y69719D02*
X16085Y69157D01*
X16647Y68875D01*
X17209Y69157D01*
X17491Y69719D01*
Y71688D01*
X14116D01*
Y69719D01*
X14397Y69157D01*
X14959Y68875D01*
X15522Y69157D01*
X15804Y69719D01*
Y71688D01*
X16366Y67188D02*
X15241D01*
X14678Y66907D01*
X14397Y66625D01*
X14116Y66063D01*
Y65500D01*
X14397Y64938D01*
X14678Y64657D01*
X15241Y64375D01*
X16366D01*
X16928Y64657D01*
X17209Y64938D01*
X17491Y65500D01*
Y66063D01*
X17209Y66625D01*
X16928Y66907D01*
X16366Y67188D01*
X17491Y61281D02*
X14116D01*
Y62688D02*
Y59875D01*
X17491Y56781D02*
X14116D01*
Y58188D02*
Y55375D01*
X16366Y53688D02*
X15241D01*
X14678Y53407D01*
X14397Y53125D01*
X14116Y52563D01*
Y52000D01*
X14397Y51438D01*
X14678Y51157D01*
X15241Y50875D01*
X16366D01*
X16928Y51157D01*
X17209Y51438D01*
X17491Y52000D01*
Y52563D01*
X17209Y53125D01*
X16928Y53407D01*
X16366Y53688D01*
X17491Y49188D02*
X14116D01*
X15804Y47781D01*
X14116Y46375D01*
X17491D01*
D02*
D14*
X75272Y20250D03*
Y137830D03*
X135272Y20250D03*
X210272Y232003D03*
D02*
D15*
X75272Y30250D03*
Y40250D03*
Y50250D03*
Y60250D03*
Y70250D03*
Y147830D03*
Y157830D03*
Y167830D03*
Y177830D03*
Y187830D03*
X135272Y30250D03*
Y40250D03*
Y50250D03*
Y60250D03*
Y70250D03*
X210272Y42003D03*
Y52003D03*
Y62003D03*
Y72003D03*
Y82003D03*
Y92003D03*
Y102003D03*
Y112003D03*
Y122003D03*
Y132003D03*
Y142003D03*
Y152003D03*
Y162003D03*
Y172003D03*
Y182003D03*
Y192003D03*
Y202003D03*
Y212003D03*
Y222003D03*
X220272Y42003D03*
Y52003D03*
Y62003D03*
Y72003D03*
Y82003D03*
Y92003D03*
Y102003D03*
Y112003D03*
Y122003D03*
Y132003D03*
Y142003D03*
Y152003D03*
Y162003D03*
Y172003D03*
Y182003D03*
Y192003D03*
Y202003D03*
Y212003D03*
Y222003D03*
Y232003D03*
D02*
D16*
X75272Y202003D03*
X135272Y137003D03*
Y192003D03*
D02*
D17*
X75272Y212003D03*
Y222003D03*
Y232003D03*
X135272Y147003D03*
Y157003D03*
Y167003D03*
Y202003D03*
Y212003D03*
Y222003D03*
Y232003D03*
D02*
D18*
X25250Y102003D03*
Y222250D03*
Y232250D03*
X25272Y112003D03*
Y122003D03*
Y132003D03*
Y142003D03*
Y152003D03*
Y162003D03*
Y172003D03*
Y182003D03*
Y192003D03*
Y202003D03*
Y212003D03*
D02*
D19*
Y42003D03*
Y52003D03*
Y62003D03*
X35272Y42003D03*
Y52003D03*
Y62003D03*
X45272Y42003D03*
Y52003D03*
Y62003D03*
X55772Y102253D03*
Y112253D03*
D02*
D70*
X139770Y22273D02*
Y18260D01*
X171453Y49943D01*
Y72024D01*
G75*
G02*
X171966Y73262I1750J0D01*
G01*
X206693Y107989D01*
G75*
G02*
X207512Y108451I1237J-1237D01*
G01*
G75*
G02*
X205781Y111753I2760J3552D01*
G01*
X164184Y70156D01*
Y47412D01*
G75*
G02*
X163671Y46174I-1750J0D01*
G01*
X139770Y22273D01*
G36*
X139770Y22273D02*
Y18260D01*
X171453Y49943D01*
Y72024D01*
G75*
G02*
X171966Y73262I1750J0D01*
G01*
X206693Y107989D01*
G75*
G02*
X207512Y108451I1237J-1237D01*
G01*
G75*
G02*
X205781Y111753I2760J3552D01*
G01*
X164184Y70156D01*
Y47412D01*
G75*
G02*
X163671Y46174I-1750J0D01*
G01*
X139770Y22273D01*
G37*
X226552Y253145D02*
G75*
G03*
X217241Y262456I-9311J0D01*
G01*
X156217D01*
G75*
G03*
X154780Y261019I0J-1437D01*
G01*
Y249208D01*
G75*
G02*
X148343Y242771I-6437J0D01*
G01*
X89288D01*
G75*
G02*
X82851Y249208I0J6437D01*
G01*
Y261019D01*
G75*
G03*
X81414Y262456I-1437J0D01*
G01*
X20390D01*
G75*
G03*
X11079Y253145I0J-9311D01*
G01*
Y20861D01*
G75*
G03*
X20390Y11550I9311J0D01*
G01*
X217241D01*
G75*
G03*
X226552Y20861I0J9311D01*
G01*
Y253145D01*
X208510Y251176D02*
G75*
G02*
X222034I6762J0D01*
G01*
G75*
G02*
X208510I-6762J0D01*
G01*
X51522Y106503D02*
X60022D01*
Y98003D01*
X51522D01*
Y106503D01*
Y116503D02*
X60022D01*
Y108003D01*
X51522D01*
Y116503D01*
X70272Y207003D02*
X80272D01*
Y197003D01*
X70272D01*
Y207003D01*
Y212003D02*
G75*
G02*
X80272I5000J0D01*
G01*
G75*
G02*
X70272I-5000J0D01*
G01*
Y222003D02*
G75*
G02*
X80272I5000J0D01*
G01*
G75*
G02*
X70272I-5000J0D01*
G01*
Y232003D02*
G75*
G02*
X80272I5000J0D01*
G01*
G75*
G02*
X70272I-5000J0D01*
G01*
X70774Y142328D02*
X79770D01*
Y133332D01*
X70774D01*
Y142328D01*
Y147830D02*
G75*
G02*
X79770I4498J0D01*
G01*
G75*
G02*
X70774I-4498J0D01*
G01*
Y157830D02*
G75*
G02*
X79770I4498J0D01*
G01*
G75*
G02*
X70774I-4498J0D01*
G01*
Y167830D02*
G75*
G02*
X79770I4498J0D01*
G01*
G75*
G02*
X70774I-4498J0D01*
G01*
Y177830D02*
G75*
G02*
X79770I4498J0D01*
G01*
G75*
G02*
X70774I-4498J0D01*
G01*
Y187830D02*
G75*
G02*
X79770I4498J0D01*
G01*
G75*
G02*
X70774I-4498J0D01*
G01*
X18559Y73163D02*
G75*
G02*
X19809Y71913I0J-1250D01*
G01*
Y44464D01*
G75*
G02*
X18559Y43214I-1250J0D01*
G01*
X12709D01*
G75*
G02*
X11459Y44464I0J1250D01*
G01*
Y71913D01*
G75*
G02*
X12709Y73163I1250J0D01*
G01*
X18559D01*
X15597Y22830D02*
G75*
G02*
X29120I6762J0D01*
G01*
G75*
G02*
X15597I-6762J0D01*
G01*
Y251176D02*
G75*
G02*
X29120I6762J0D01*
G01*
G75*
G02*
X15597I-6762J0D01*
G01*
X83382Y94503D02*
G75*
G02*
X89819Y88066I0J-6437D01*
G01*
Y87791D01*
G75*
G02*
X83382Y81354I-6437J0D01*
G01*
X24327D01*
G75*
G02*
X17890Y87791I0J6437D01*
G01*
Y88066D01*
G75*
G02*
X24327Y94503I6437J0D01*
G01*
X83382D01*
X21022Y46253D02*
X29522D01*
Y37753D01*
X21022D01*
Y46253D01*
X216771Y134827D02*
G75*
G02*
X224770Y132003I3501J-2824D01*
G01*
G75*
G02*
X216771Y129179I-4498J0D01*
G01*
Y124827D01*
G75*
G02*
X224770Y122003I3501J-2824D01*
G01*
G75*
G02*
X216682Y119293I-4498J0D01*
G01*
G75*
G02*
X216258Y118606I-1661J550D01*
G01*
X213670Y116017D01*
G75*
G02*
X212982Y115593I-1238J1237D01*
G01*
G75*
G02*
X213096Y108502I-2710J-3590D01*
G01*
X214296D01*
X216105Y110311D01*
G75*
G02*
X215774Y112003I4167J1693D01*
G01*
G75*
G02*
X224770I4498J0D01*
G01*
G75*
G02*
X218580Y107836I-4498J0D01*
G01*
X216258Y105515D01*
G75*
G02*
X215020Y105002I-1237J1237D01*
G01*
X213624D01*
G75*
G02*
X208580Y97836I-3352J-2999D01*
G01*
X205930Y95186D01*
G75*
G02*
X200260Y95600I-2820J414D01*
G01*
G75*
G02*
X200596Y96942I2850J0D01*
G01*
X174953Y71300D01*
Y49219D01*
G75*
G02*
X174441Y47981I-1750J0D01*
G01*
X140472Y14013D01*
G75*
G02*
X139234Y13500I-1237J1237D01*
G01*
X128269D01*
G75*
G02*
X127030Y14013I-1J1750D01*
G01*
X79613Y61430D01*
G75*
G02*
X71533Y57750I-4341J-1180D01*
G01*
X63804D01*
X56290Y50235D01*
G75*
G02*
X54520Y49503I-1768J1768D01*
G01*
X49522D01*
Y47753D01*
X41022D01*
Y49503D01*
X39522D01*
Y47753D01*
X31022D01*
Y49503D01*
X29522D01*
Y47753D01*
X21022D01*
Y56253D01*
X29522D01*
Y54503D01*
X31022D01*
Y56253D01*
X39522D01*
Y54503D01*
X41022D01*
Y56253D01*
X49522D01*
Y54503D01*
X53487D01*
X61001Y62018D01*
G75*
G02*
X62771Y62750I1768J-1768D01*
G01*
X71533D01*
G75*
G02*
X76452Y64591I3739J-2500D01*
G01*
X75291Y65752D01*
G75*
G02*
X70774Y70250I-19J4498D01*
G01*
G75*
G02*
X79770I4498J0D01*
G01*
G75*
G02*
X78679Y67313I-4498J0D01*
G01*
X128993Y17000D01*
X130774D01*
Y24747D01*
X137294D01*
X160684Y48137D01*
Y70623D01*
X147000Y56519D01*
Y37254D01*
G75*
G02*
X146487Y36017I-1750J0D01*
G01*
X139638Y29167D01*
G75*
G02*
X130774Y30250I-4366J1083D01*
G01*
G75*
G02*
X138692Y33171I4498J0D01*
G01*
X143500Y37979D01*
Y57228D01*
G75*
G02*
X143994Y58446I1750J0D01*
G01*
X205776Y122129D01*
G75*
G02*
X213271Y125356I4496J-126D01*
G01*
Y128651D01*
G75*
G02*
X206413Y129692I-2999J3352D01*
G01*
X202000Y125278D01*
Y119250D01*
G75*
G02*
X201487Y118013I-1750J0D01*
G01*
X143000Y59525D01*
Y50250D01*
G75*
G02*
X141250Y48500I-1750J0D01*
G01*
X139416D01*
G75*
G02*
X130774Y50250I-4144J1750D01*
G01*
G75*
G02*
X139416Y52000I4498J0D01*
G01*
X139500D01*
Y58715D01*
G75*
G02*
X130774Y60250I-4228J1535D01*
G01*
G75*
G02*
X136148Y64662I4498J0D01*
G01*
X139967Y68480D01*
Y84198D01*
G75*
G02*
X140699Y85966I2500J0D01*
G01*
X185626Y130892D01*
G75*
G02*
X185480Y130907I211J2844D01*
G01*
X137022Y82449D01*
Y74394D01*
G75*
G02*
X139770Y70250I-1750J-4144D01*
G01*
G75*
G02*
X130774I-4498J0D01*
G01*
G75*
G02*
X133522Y74394I4498J0D01*
G01*
Y83174D01*
G75*
G02*
X134035Y84411I1750J0D01*
G01*
X183005Y133381D01*
G75*
G02*
X182983Y133735I2828J354D01*
G01*
G75*
G02*
X188676Y133942I2850J0D01*
G01*
X205860Y151127D01*
G75*
G02*
X205774Y152003I4412J876D01*
G01*
G75*
G02*
X214770I4498J0D01*
G01*
G75*
G02*
X209396Y147591I-4498J0D01*
G01*
X144967Y83163D01*
Y67445D01*
G75*
G02*
X144457Y65932I-2500J0D01*
G01*
X198500Y119975D01*
Y126003D01*
G75*
G02*
X199013Y127241I1750J0D01*
G01*
X205013Y133241D01*
G75*
G02*
X206126Y133749I1237J-1237D01*
G01*
G75*
G02*
X213271Y135356I4146J-1746D01*
G01*
Y136530D01*
X211965Y137836D01*
G75*
G02*
X205774Y142003I-1693J4167D01*
G01*
G75*
G02*
X214770I4498J0D01*
G01*
G75*
G02*
X214439Y140311I-4498J0D01*
G01*
X216258Y138492D01*
G75*
G02*
X216771Y137254I-1237J-1237D01*
G01*
Y134827D01*
X215774Y42003D02*
G75*
G02*
X224770I4498J0D01*
G01*
G75*
G02*
X215774I-4498J0D01*
G01*
Y52003D02*
G75*
G02*
X224770I4498J0D01*
G01*
G75*
G02*
X215774I-4498J0D01*
G01*
Y62003D02*
G75*
G02*
X224770I4498J0D01*
G01*
G75*
G02*
X215774I-4498J0D01*
G01*
Y72003D02*
G75*
G02*
X224770I4498J0D01*
G01*
G75*
G02*
X215774I-4498J0D01*
G01*
Y82003D02*
G75*
G02*
X224770I4498J0D01*
G01*
G75*
G02*
X215774I-4498J0D01*
G01*
Y92003D02*
G75*
G02*
X224770I4498J0D01*
G01*
G75*
G02*
X215774I-4498J0D01*
G01*
Y102003D02*
G75*
G02*
X224770I4498J0D01*
G01*
G75*
G02*
X215774I-4498J0D01*
G01*
X205774Y62003D02*
G75*
G02*
X214770I4498J0D01*
G01*
G75*
G02*
X205774I-4498J0D01*
G01*
Y72003D02*
G75*
G02*
X214770I4498J0D01*
G01*
G75*
G02*
X205774I-4498J0D01*
G01*
Y82003D02*
G75*
G02*
X214770I4498J0D01*
G01*
G75*
G02*
X205774I-4498J0D01*
G01*
Y92003D02*
G75*
G02*
X214770I4498J0D01*
G01*
G75*
G02*
X205774I-4498J0D01*
G01*
X206243Y54003D02*
G75*
G02*
X214770Y52003I4029J-2000D01*
G01*
G75*
G02*
X206243Y50003I-4498J0D01*
G01*
X189802D01*
G75*
G02*
X184922Y52003I-2030J2000D01*
G01*
G75*
G02*
X189802Y54003I2850J0D01*
G01*
X206243D01*
X205774Y42003D02*
G75*
G02*
X214770I4498J0D01*
G01*
G75*
G02*
X205774I-4498J0D01*
G01*
X208510Y22830D02*
G75*
G02*
X222034I6762J0D01*
G01*
G75*
G02*
X208510I-6762J0D01*
G01*
X70774Y24747D02*
X79770D01*
Y15751D01*
X70774D01*
Y24747D01*
Y30250D02*
G75*
G02*
X79770I4498J0D01*
G01*
G75*
G02*
X70774I-4498J0D01*
G01*
Y40250D02*
G75*
G02*
X79770I4498J0D01*
G01*
G75*
G02*
X70774I-4498J0D01*
G01*
Y50250D02*
G75*
G02*
X79770I4498J0D01*
G01*
G75*
G02*
X70774I-4498J0D01*
G01*
X41022Y46253D02*
X49522D01*
Y37753D01*
X41022D01*
Y46253D01*
X31022D02*
X39522D01*
Y37753D01*
X31022D01*
Y46253D01*
X219396Y236415D02*
G75*
G02*
X222772Y228264I876J-4412D01*
G01*
Y225743D01*
G75*
G02*
X224770Y222003I-2500J-3739D01*
G01*
G75*
G02*
X215774I-4498J0D01*
G01*
G75*
G02*
X217772Y225743I4498J0D01*
G01*
Y228264D01*
G75*
G02*
X215860Y232880I2500J3739D01*
G01*
X214770Y233970D01*
Y227505D01*
X205774D01*
Y235002D01*
X189661D01*
X165238Y210578D01*
G75*
G02*
X164757Y210203I-1767J1767D01*
G01*
X156639Y202085D01*
Y165870D01*
G75*
G02*
X155907Y164102I-2500J0D01*
G01*
X140102Y148297D01*
G75*
G02*
X135272Y142003I-4830J-1294D01*
G01*
G75*
G02*
Y152003I0J5000D01*
G01*
G75*
G02*
X136566Y151833I0J-5000D01*
G01*
X137072Y152338D01*
G75*
G02*
X130272Y157003I-1800J4665D01*
G01*
G75*
G02*
X140272I5000J0D01*
G01*
G75*
G02*
X139937Y155204I-5000J0D01*
G01*
X151639Y166906D01*
Y203120D01*
G75*
G02*
X152371Y204888I2500J0D01*
G01*
X160487Y213003D01*
X140066Y233424D01*
G75*
G02*
X135272Y227003I-4794J-1420D01*
G01*
G75*
G02*
X130272Y232003I0J5000D01*
G01*
G75*
G02*
X130276Y232195I4999J4D01*
G01*
X103750Y205669D01*
Y90250D01*
G75*
G02*
X103018Y88482I-2500J0D01*
G01*
X90209Y75673D01*
G75*
G02*
X88439Y74941I-1768J1768D01*
G01*
X68285D01*
X53580Y60235D01*
G75*
G02*
X51810Y59503I-1768J1768D01*
G01*
X49522D01*
Y57753D01*
X41022D01*
Y59503D01*
X39522D01*
Y57753D01*
X31022D01*
Y59503D01*
X29522D01*
Y57753D01*
X21022D01*
Y66253D01*
X29522D01*
Y64503D01*
X31022D01*
Y66253D01*
X39522D01*
Y64503D01*
X41022D01*
Y66253D01*
X49522D01*
Y64503D01*
X50777D01*
X65482Y79209D01*
G75*
G02*
X67252Y79941I1768J-1768D01*
G01*
X87406D01*
X98750Y91285D01*
Y206705D01*
G75*
G02*
X99482Y208472I2500J0D01*
G01*
X130961Y239951D01*
G75*
G02*
X132731Y240683I1768J-1768D01*
G01*
X138840D01*
G75*
G02*
X140610Y239951I2J-2500D01*
G01*
X164075Y216486D01*
X186858Y239270D01*
G75*
G02*
X188628Y240002I1768J-1768D01*
G01*
X214771D01*
G75*
G02*
X216541Y239270I2J-2500D01*
G01*
X219396Y236415D01*
X130272Y142003D02*
X140272D01*
Y132003D01*
X130272D01*
Y142003D01*
Y167003D02*
G75*
G02*
X140272I5000J0D01*
G01*
G75*
G02*
X130272I-5000J0D01*
G01*
Y222003D02*
G75*
G02*
X140272I5000J0D01*
G01*
G75*
G02*
X130272I-5000J0D01*
G01*
Y212003D02*
G75*
G02*
X140272I5000J0D01*
G01*
G75*
G02*
X130272I-5000J0D01*
G01*
Y202003D02*
G75*
G02*
X140272I5000J0D01*
G01*
G75*
G02*
X130272I-5000J0D01*
G01*
Y197003D02*
X140272D01*
Y187003D01*
X130272D01*
Y197003D01*
X215774Y192003D02*
G75*
G02*
X224770I4498J0D01*
G01*
G75*
G02*
X218580Y187836I-4498J0D01*
G01*
X216509Y185766D01*
G75*
G02*
X215271Y185253I-1237J1237D01*
G01*
X213381D01*
G75*
G02*
X214770Y182003I-3109J-3250D01*
G01*
G75*
G02*
X205774I-4498J0D01*
G01*
G75*
G02*
X207163Y185253I4498J0D01*
G01*
X204846D01*
X190503Y170910D01*
G75*
G02*
X190525Y170557I-2828J-354D01*
G01*
G75*
G02*
X184825I-2850J0D01*
G01*
G75*
G02*
X188028Y173385I2850J0D01*
G01*
X202884Y188241D01*
G75*
G02*
X204122Y188753I1237J-1237D01*
G01*
X207163D01*
G75*
G02*
X205774Y192003I3109J3250D01*
G01*
G75*
G02*
X214770I4498J0D01*
G01*
G75*
G02*
X213381Y188753I-4498J0D01*
G01*
X214547D01*
X216105Y190311D01*
G75*
G02*
X215774Y192003I4167J1693D01*
G01*
Y142003D02*
G75*
G02*
X224770I4498J0D01*
G01*
G75*
G02*
X215774I-4498J0D01*
G01*
Y152003D02*
G75*
G02*
X224770I4498J0D01*
G01*
G75*
G02*
X215774I-4498J0D01*
G01*
Y162003D02*
G75*
G02*
X224770I4498J0D01*
G01*
G75*
G02*
X215774I-4498J0D01*
G01*
Y172003D02*
G75*
G02*
X224770I4498J0D01*
G01*
G75*
G02*
X215774I-4498J0D01*
G01*
Y182003D02*
G75*
G02*
X224770I4498J0D01*
G01*
G75*
G02*
X215774I-4498J0D01*
G01*
X205774Y162003D02*
G75*
G02*
X214770I4498J0D01*
G01*
G75*
G02*
X205774I-4498J0D01*
G01*
Y172003D02*
G75*
G02*
X214770I4498J0D01*
G01*
G75*
G02*
X205774I-4498J0D01*
G01*
X215774Y202003D02*
G75*
G02*
X224770I4498J0D01*
G01*
G75*
G02*
X215774I-4498J0D01*
G01*
Y212003D02*
G75*
G02*
X224770I4498J0D01*
G01*
G75*
G02*
X215774I-4498J0D01*
G01*
X205780Y222236D02*
G75*
G02*
X214770Y222003I4492J-233D01*
G01*
G75*
G02*
X207206Y218712I-4498J0D01*
G01*
X160411Y171917D01*
Y159253D01*
G75*
G02*
X161511Y157003I-1750J-2250D01*
G01*
G75*
G02*
X155811I-2850J0D01*
G01*
G75*
G02*
X156911Y159253I2850J0D01*
G01*
Y172642D01*
G75*
G02*
X157424Y173880I1750J0D01*
G01*
X205780Y222236D01*
X205774Y212003D02*
G75*
G02*
X214770I4498J0D01*
G01*
G75*
G02*
X208514Y207863I-4498J0D01*
G01*
X168007Y167356D01*
G75*
G02*
X168030Y167003I-2828J-354D01*
G01*
G75*
G02*
X162330I-2850J0D01*
G01*
G75*
G02*
X165533Y169831I2850J0D01*
G01*
X206078Y210377D01*
G75*
G02*
X205774Y212003I4194J1626D01*
G01*
Y202003D02*
G75*
G02*
X214770I4498J0D01*
G01*
G75*
G02*
X208580Y197836I-4498J0D01*
G01*
X184479Y173735D01*
G75*
G02*
X183241Y173223I-1237J1237D01*
G01*
X182710D01*
G75*
G02*
X177610Y174973I-2250J1750D01*
G01*
G75*
G02*
X182623Y176829I2850J0D01*
G01*
X206105Y200311D01*
G75*
G02*
X205774Y202003I4167J1693D01*
G01*
X130774Y40250D02*
G75*
G02*
X139770I4498J0D01*
G01*
G75*
G02*
X130774I-4498J0D01*
G01*
X25250Y106737D02*
G75*
G02*
X29984Y102003I0J-4734D01*
G01*
G75*
G02*
X25250Y97269I-4734J0D01*
G01*
G75*
G02*
X20516Y102003I0J4734D01*
G01*
G75*
G02*
X25250Y106737I4734J0D01*
G01*
Y226984D02*
G75*
G02*
X29984Y222250I0J-4734D01*
G01*
G75*
G02*
X25250Y217516I-4734J0D01*
G01*
G75*
G02*
X20516Y222250I0J4734D01*
G01*
G75*
G02*
X25250Y226984I4734J0D01*
G01*
X25272Y116737D02*
G75*
G02*
X30006Y112003I0J-4734D01*
G01*
G75*
G02*
X25272Y107269I-4734J0D01*
G01*
G75*
G02*
X20538Y112003I0J4734D01*
G01*
G75*
G02*
X25272Y116737I4734J0D01*
G01*
Y126737D02*
G75*
G02*
X30006Y122003I0J-4734D01*
G01*
G75*
G02*
X25272Y117269I-4734J0D01*
G01*
G75*
G02*
X20538Y122003I0J4734D01*
G01*
G75*
G02*
X25272Y126737I4734J0D01*
G01*
Y136737D02*
G75*
G02*
X30006Y132003I0J-4734D01*
G01*
G75*
G02*
X25272Y127269I-4734J0D01*
G01*
G75*
G02*
X20538Y132003I0J4734D01*
G01*
G75*
G02*
X25272Y136737I4734J0D01*
G01*
Y146737D02*
G75*
G02*
X30006Y142003I0J-4734D01*
G01*
G75*
G02*
X25272Y137269I-4734J0D01*
G01*
G75*
G02*
X20538Y142003I0J4734D01*
G01*
G75*
G02*
X25272Y146737I4734J0D01*
G01*
Y156737D02*
G75*
G02*
X30006Y152003I0J-4734D01*
G01*
G75*
G02*
X25272Y147269I-4734J0D01*
G01*
G75*
G02*
X20538Y152003I0J4734D01*
G01*
G75*
G02*
X25272Y156737I4734J0D01*
G01*
Y166737D02*
G75*
G02*
X30006Y162003I0J-4734D01*
G01*
G75*
G02*
X25272Y157269I-4734J0D01*
G01*
G75*
G02*
X20538Y162003I0J4734D01*
G01*
G75*
G02*
X25272Y166737I4734J0D01*
G01*
Y176737D02*
G75*
G02*
X30006Y172003I0J-4734D01*
G01*
G75*
G02*
X25272Y167269I-4734J0D01*
G01*
G75*
G02*
X20538Y172003I0J4734D01*
G01*
G75*
G02*
X25272Y176737I4734J0D01*
G01*
Y186737D02*
G75*
G02*
X30006Y182003I0J-4734D01*
G01*
G75*
G02*
X25272Y177269I-4734J0D01*
G01*
G75*
G02*
X20538Y182003I0J4734D01*
G01*
G75*
G02*
X25272Y186737I4734J0D01*
G01*
Y196737D02*
G75*
G02*
X30006Y192003I0J-4734D01*
G01*
G75*
G02*
X25272Y187269I-4734J0D01*
G01*
G75*
G02*
X20538Y192003I0J4734D01*
G01*
G75*
G02*
X25272Y196737I4734J0D01*
G01*
Y206737D02*
G75*
G02*
X30006Y202003I0J-4734D01*
G01*
G75*
G02*
X25272Y197269I-4734J0D01*
G01*
G75*
G02*
X20538Y202003I0J4734D01*
G01*
G75*
G02*
X25272Y206737I4734J0D01*
G01*
Y216737D02*
G75*
G02*
X30006Y212003I0J-4734D01*
G01*
G75*
G02*
X25272Y207269I-4734J0D01*
G01*
G75*
G02*
X20538Y212003I0J4734D01*
G01*
G75*
G02*
X25272Y216737I4734J0D01*
G01*
X25250Y236984D02*
G75*
G02*
X29984Y232250I0J-4734D01*
G01*
G75*
G02*
X25250Y227516I-4734J0D01*
G01*
G75*
G02*
X20516Y232250I0J4734D01*
G01*
G75*
G02*
X25250Y236984I4734J0D01*
G01*
X11329Y22830D02*
G36*
X11329Y22830D02*
Y18719D01*
G75*
G03*
X18247Y11800I9061J2143D01*
G01*
X219383D01*
G75*
G03*
X226302Y18719I-2143J9061D01*
G01*
Y22830D01*
X222034D01*
G75*
G02*
X208510I-6762J0D01*
G01*
X149289D01*
X140472Y14013D01*
G75*
G02*
X139234Y13500I-1237J1237D01*
G01*
X128269D01*
G75*
G02*
X127030Y14013I-1J1750D01*
G01*
X118213Y22830D01*
X79770D01*
Y15751D01*
X70774D01*
Y22830D01*
X29120D01*
G75*
G02*
X15597I-6762J0D01*
G01*
X11329D01*
G37*
X123163D02*
G36*
X123163Y22830D02*
X128993Y17000D01*
X130774D01*
Y22830D01*
X123163D01*
G37*
X11329Y30250D02*
G36*
X11329Y30250D02*
Y22830D01*
X15597D01*
G75*
G02*
X29120I6762J0D01*
G01*
X70774D01*
Y24747D01*
X79770D01*
Y22830D01*
X118213D01*
X110793Y30250D01*
X79770D01*
G75*
G02*
X70774I-4498J0D01*
G01*
X11329D01*
G37*
X115743D02*
G36*
X115743Y30250D02*
X123163Y22830D01*
X130774D01*
Y24747D01*
X137294D01*
X142797Y30250D01*
X140720D01*
X139638Y29167D01*
G75*
G02*
X130774Y30250I-4366J1083D01*
G01*
X115743D01*
G37*
X156709D02*
G36*
X156709Y30250D02*
X149289Y22830D01*
X208510D01*
G75*
G02*
X222034I6762J0D01*
G01*
X226302D01*
Y30250D01*
X156709D01*
G37*
X11329Y42003D02*
G36*
X11329Y42003D02*
Y30250D01*
X70774D01*
G75*
G02*
X79770I4498J0D01*
G01*
X110793D01*
X99040Y42003D01*
X79414D01*
G75*
G02*
X79770Y40250I-4142J-1754D01*
G01*
G75*
G02*
X70774I-4498J0D01*
G01*
G75*
G02*
X71130Y42003I4498J0D01*
G01*
X49522D01*
Y37753D01*
X41022D01*
Y42003D01*
X39522D01*
Y37753D01*
X31022D01*
Y42003D01*
X29522D01*
Y37753D01*
X21022D01*
Y42003D01*
X11329D01*
G37*
X103989D02*
G36*
X103989Y42003D02*
X115743Y30250D01*
X130774D01*
G75*
G02*
X138692Y33171I4498J0D01*
G01*
X143500Y37979D01*
Y42003D01*
X139414D01*
G75*
G02*
X139770Y40250I-4142J-1754D01*
G01*
G75*
G02*
X130774I-4498J0D01*
G01*
G75*
G02*
X131130Y42003I4498J0D01*
G01*
X103989D01*
G37*
X140720Y30250D02*
G36*
X140720Y30250D02*
X142797D01*
X154550Y42003D01*
X147000D01*
Y37254D01*
G75*
G02*
X146487Y36017I-1748J-1D01*
G01*
X140720Y30250D01*
G37*
X168463Y42003D02*
G36*
X168463Y42003D02*
X156709Y30250D01*
X226302D01*
Y42003D01*
X224770D01*
G75*
G02*
X215774I-4498J0D01*
G01*
X214770D01*
G75*
G02*
X205774I-4498J0D01*
G01*
X168463D01*
G37*
X11329Y52003D02*
G36*
X11329Y52003D02*
Y42003D01*
X21022D01*
Y46253D01*
X29522D01*
Y42003D01*
X31022D01*
Y46253D01*
X39522D01*
Y42003D01*
X41022D01*
Y46253D01*
X49522D01*
Y42003D01*
X71130D01*
G75*
G02*
X79414I4142J-1753D01*
G01*
X99040D01*
X89040Y52003D01*
X79414D01*
G75*
G02*
X79770Y50250I-4142J-1754D01*
G01*
G75*
G02*
X70774I-4498J0D01*
G01*
G75*
G02*
X71130Y52003I4498J0D01*
G01*
X58057D01*
X56290Y50235D01*
G75*
G02*
X54520Y49503I-1767J1767D01*
G01*
X49522D01*
Y47753D01*
X41022D01*
Y49503D01*
X39522D01*
Y47753D01*
X31022D01*
Y49503D01*
X29522D01*
Y47753D01*
X21022D01*
Y52003D01*
X19809D01*
Y44464D01*
G75*
G02*
X18559Y43214I-1250J0D01*
G01*
X12709D01*
G75*
G02*
X11459Y44464I0J1250D01*
G01*
Y52003D01*
X11329D01*
G37*
X93989D02*
G36*
X93989Y52003D02*
X103989Y42003D01*
X131130D01*
G75*
G02*
X139414I4142J-1753D01*
G01*
X143500D01*
Y52003D01*
X143000D01*
Y50250D01*
G75*
G02*
X141250Y48500I-1750J0D01*
G01*
X139416D01*
G75*
G02*
X130774Y50250I-4144J1750D01*
G01*
G75*
G02*
X131130Y52003I4498J0D01*
G01*
X93989D01*
G37*
X139415D02*
G36*
X139415Y52003D02*
G75*
G02*
X139416Y52000I-4196J-1575D01*
G01*
X139500D01*
Y52003D01*
X139415D01*
G37*
X147000D02*
G36*
X147000Y52003D02*
Y42003D01*
X154550D01*
X160684Y48137D01*
Y52003D01*
X147000D01*
G37*
X174441Y47981D02*
G36*
X174441Y47981D02*
X168463Y42003D01*
X205774D01*
G75*
G02*
X214770I4498J0D01*
G01*
X215774D01*
G75*
G02*
X224770I4498J0D01*
G01*
X226302D01*
Y52003D01*
X224770D01*
G75*
G02*
X215774I-4498J0D01*
G01*
X214770D01*
G75*
G02*
X206243Y50003I-4498J0D01*
G01*
X189802D01*
G75*
G02*
X184922Y52003I-2030J2000D01*
G01*
X174953D01*
Y49219D01*
G75*
G02*
Y49218I-2051J0D01*
G01*
G75*
G02*
X174441Y47981I-1748J0D01*
G01*
G37*
X11329Y58188D02*
G36*
X11329Y58188D02*
Y52003D01*
X11459D01*
Y58188D01*
X11329D01*
G37*
X19809D02*
G36*
X19809Y58188D02*
Y52003D01*
X21022D01*
Y56253D01*
X29522D01*
Y54503D01*
X31022D01*
Y56253D01*
X39522D01*
Y54503D01*
X41022D01*
Y56253D01*
X49522D01*
Y54503D01*
X53487D01*
X57172Y58188D01*
X49522D01*
Y57753D01*
X41022D01*
Y58188D01*
X39522D01*
Y57753D01*
X31022D01*
Y58188D01*
X29522D01*
Y57753D01*
X21022D01*
Y58188D01*
X19809D01*
G37*
X63804Y57750D02*
G36*
X63804Y57750D02*
X58057Y52003D01*
X71130D01*
G75*
G02*
X79414I4142J-1753D01*
G01*
X89040D01*
X82855Y58188D01*
X79270D01*
G75*
G02*
X71533Y57750I-3998J2062D01*
G01*
X63804D01*
G37*
X87804Y58188D02*
G36*
X87804Y58188D02*
X93989Y52003D01*
X131130D01*
G75*
G02*
X139415I4143J-1753D01*
G01*
X139500D01*
Y58188D01*
X139270D01*
G75*
G02*
X131274I-3998J2062D01*
G01*
X87804D01*
G37*
X143000D02*
G36*
X143000Y58188D02*
Y52003D01*
X143500D01*
Y57228D01*
G75*
G02*
X143787Y58188I1751J0D01*
G01*
X143000D01*
G37*
X147000Y56519D02*
G36*
X147000Y56519D02*
Y52003D01*
X160684D01*
Y58188D01*
X148620D01*
X147000Y56519D01*
G37*
X174953Y58188D02*
G36*
X174953Y58188D02*
Y52003D01*
X184922D01*
G75*
G02*
X189802Y54003I2850J0D01*
G01*
X206243D01*
G75*
G02*
X214770Y52003I4029J-2000D01*
G01*
X215774D01*
G75*
G02*
X224770I4498J0D01*
G01*
X226302D01*
Y58188D01*
X222655D01*
G75*
G02*
X217889I-2383J3815D01*
G01*
X212655D01*
G75*
G02*
X207889I-2383J3815D01*
G01*
X174953D01*
G37*
X11329Y72003D02*
G36*
X11329Y72003D02*
Y58188D01*
X11459D01*
Y71913D01*
G75*
G02*
X11462Y72003I1250J2D01*
G01*
X11329D01*
G37*
X19809Y71913D02*
G36*
X19809Y71913D02*
Y58188D01*
X21022D01*
Y66253D01*
X29522D01*
Y64503D01*
X31022D01*
Y66253D01*
X39522D01*
Y64503D01*
X41022D01*
Y66253D01*
X49522D01*
Y64503D01*
X50777D01*
X58277Y72003D01*
X19806D01*
G75*
G02*
X19809Y71913I-1247J-89D01*
G01*
G37*
X29522Y59503D02*
G36*
X29522Y59503D02*
Y58188D01*
X31022D01*
Y59503D01*
X29522D01*
G37*
X39522D02*
G36*
X39522Y59503D02*
Y58188D01*
X41022D01*
Y59503D01*
X39522D01*
G37*
X49522D02*
G36*
X49522Y59503D02*
Y58188D01*
X57172D01*
X61001Y62018D01*
G75*
G02*
X62771Y62750I1767J-1767D01*
G01*
X71533D01*
G75*
G02*
X76452Y64591I3739J-2500D01*
G01*
X75291Y65752D01*
G75*
G02*
X70774Y70250I-19J4498D01*
G01*
Y70250D01*
G75*
G02*
X71130Y72003I4498J0D01*
G01*
X65348D01*
X53580Y60235D01*
G75*
G02*
X51810Y59503I-1767J1767D01*
G01*
X49522D01*
G37*
X79770Y70250D02*
G36*
X79770Y70250D02*
G75*
G02*
X78679Y67313I-4498J0D01*
G01*
X87804Y58188D01*
X131274D01*
G75*
G02*
X130774Y60250I3998J2062D01*
G01*
G75*
G02*
X136148Y64662I4498J0D01*
G01*
X139967Y68480D01*
Y72003D01*
X139414D01*
G75*
G02*
X139770Y70250I-4143J-1754D01*
G01*
G75*
G02*
X130774I-4498J0D01*
G01*
G75*
G02*
X131130Y72003I4498J0D01*
G01*
X79414D01*
G75*
G02*
X79770Y70250I-4142J-1754D01*
G01*
G37*
Y60250D02*
G36*
X79770Y60250D02*
G75*
G02*
X79270Y58188I-4498J0D01*
G01*
X82855D01*
X79613Y61430D01*
G75*
G02*
X79770Y60250I-4342J-1180D01*
G01*
G37*
X139270Y58188D02*
G36*
X139270Y58188D02*
X139500D01*
Y58715D01*
G75*
G02*
X139270Y58188I-4228J1535D01*
G01*
G37*
X143000Y59525D02*
G36*
X143000Y59525D02*
Y58188D01*
X143787D01*
G75*
G02*
X143994Y58446I1464J-961D01*
G01*
X157146Y72003D01*
X155478D01*
X143000Y59525D01*
G37*
X144967Y72003D02*
G36*
X144967Y72003D02*
Y67445D01*
Y67444D01*
G75*
G02*
X144457Y65932I-2499J0D01*
G01*
X150528Y72003D01*
X144967D01*
G37*
X148620Y58188D02*
G36*
X148620Y58188D02*
X160684D01*
Y70623D01*
X148620Y58188D01*
G37*
X174953Y71300D02*
G36*
X174953Y71300D02*
Y58188D01*
X207889D01*
G75*
G02*
X205774Y62003I2383J3815D01*
G01*
G75*
G02*
X214770I4498J0D01*
G01*
G75*
G02*
X212655Y58188I-4498J0D01*
G01*
X217889D01*
G75*
G02*
X215774Y62003I2383J3815D01*
G01*
G75*
G02*
X224770I4498J0D01*
G01*
G75*
G02*
X222655Y58188I-4498J0D01*
G01*
X226302D01*
Y72003D01*
X224770D01*
G75*
G02*
X215774I-4498J0D01*
G01*
X214770D01*
G75*
G02*
X205774I-4498J0D01*
G01*
X175657D01*
X174953Y71300D01*
G37*
X11329Y82003D02*
G36*
X11329Y82003D02*
Y72003D01*
X11462D01*
G75*
G02*
X12709Y73163I1247J-91D01*
G01*
X18559D01*
G75*
G02*
X19806Y72003I0J-1250D01*
G01*
X58277D01*
X65482Y79209D01*
G75*
G02*
X67252Y79941I1767J-1767D01*
G01*
X87406D01*
X89468Y82003D01*
X86200D01*
G75*
G02*
X83382Y81354I-2818J5788D01*
G01*
X24327D01*
G75*
G02*
X21509Y82003I0J6437D01*
G01*
X11329D01*
G37*
X68285Y74941D02*
G36*
X68285Y74941D02*
X65348Y72003D01*
X71130D01*
G75*
G02*
X79414I4142J-1753D01*
G01*
X131130D01*
G75*
G02*
X133522Y74394I4143J-1753D01*
G01*
Y82003D01*
X96539D01*
X90209Y75673D01*
G75*
G02*
X88439Y74941I-1767J1767D01*
G01*
X68285D01*
G37*
X137022Y82003D02*
G36*
X137022Y82003D02*
Y74394D01*
G75*
G02*
X139414Y72003I-1750J-4144D01*
G01*
X139967D01*
Y82003D01*
X137022D01*
G37*
X144967D02*
G36*
X144967Y82003D02*
Y72003D01*
X150528D01*
X160528Y82003D01*
X144967D01*
G37*
X155478Y72003D02*
G36*
X155478Y72003D02*
X157146D01*
X166848Y82003D01*
X165478D01*
X155478Y72003D01*
G37*
X185657Y82003D02*
G36*
X185657Y82003D02*
X175657Y72003D01*
X205774D01*
G75*
G02*
X214770I4498J0D01*
G01*
X215774D01*
G75*
G02*
X224770I4498J0D01*
G01*
X226302D01*
Y82003D01*
X224770D01*
G75*
G02*
X215774I-4498J0D01*
G01*
X214770D01*
G75*
G02*
X205774I-4498J0D01*
G01*
X185657D01*
G37*
X11329Y87928D02*
G36*
X11329Y87928D02*
Y82003D01*
X21509D01*
G75*
G02*
X17890Y87791I2818J5788D01*
G01*
Y87928D01*
X11329D01*
G37*
X86200Y82003D02*
G36*
X86200Y82003D02*
X89468D01*
X95393Y87928D01*
X89819D01*
Y87791D01*
G75*
G02*
X86200Y82003I-6437J0D01*
G01*
G37*
X102464Y87928D02*
G36*
X102464Y87928D02*
X96539Y82003D01*
X133522D01*
Y83174D01*
G75*
G02*
X134035Y84411I1748J1D01*
G01*
X137552Y87928D01*
X102464D01*
G37*
X137022Y82449D02*
G36*
X137022Y82449D02*
Y82003D01*
X139967D01*
Y84198D01*
G75*
G02*
Y84199I2820J0D01*
G01*
G75*
G02*
X140699Y85966I2498J0D01*
G01*
X142662Y87928D01*
X142502D01*
X137022Y82449D01*
G37*
X144967Y83163D02*
G36*
X144967Y83163D02*
Y82003D01*
X160528D01*
X166454Y87928D01*
X149733D01*
X144967Y83163D01*
G37*
X165478Y82003D02*
G36*
X165478Y82003D02*
X166848D01*
X172596Y87928D01*
X171403D01*
X165478Y82003D01*
G37*
X191582Y87928D02*
G36*
X191582Y87928D02*
X185657Y82003D01*
X205774D01*
G75*
G02*
X214770I4498J0D01*
G01*
X215774D01*
G75*
G02*
X224770I4498J0D01*
G01*
X226302D01*
Y87928D01*
X222177D01*
G75*
G02*
X218367I-1905J4075D01*
G01*
X212177D01*
G75*
G02*
X208367I-1905J4075D01*
G01*
X191582D01*
G37*
X11329Y102253D02*
G36*
X11329Y102253D02*
Y87928D01*
X17890D01*
Y88066D01*
G75*
G02*
X24327Y94503I6437J0D01*
G01*
X83382D01*
G75*
G02*
X89819Y88066I0J-6437D01*
G01*
Y87928D01*
X95393D01*
X98750Y91285D01*
Y102253D01*
X60022D01*
Y98003D01*
X51522D01*
Y102253D01*
X29978D01*
G75*
G02*
X29984Y102003I-4729J-252D01*
G01*
G75*
G02*
X25250Y97269I-4734J0D01*
G01*
G75*
G02*
X20516Y102003I0J4734D01*
G01*
G75*
G02*
X20522Y102253I4736J-2D01*
G01*
X11329D01*
G37*
X103018Y88482D02*
G36*
X103018Y88482D02*
X102464Y87928D01*
X137552D01*
X151877Y102253D01*
X103750D01*
Y90250D01*
G75*
G02*
Y90249I-2820J0D01*
G01*
G75*
G02*
X103018Y88482I-2498J0D01*
G01*
G37*
X142502Y87928D02*
G36*
X142502Y87928D02*
X142662D01*
X156987Y102253D01*
X156826D01*
X142502Y87928D01*
G37*
X164057Y102253D02*
G36*
X164057Y102253D02*
X149733Y87928D01*
X166454D01*
X180778Y102253D01*
X164057D01*
G37*
X171403Y87928D02*
G36*
X171403Y87928D02*
X172596D01*
X186493Y102253D01*
X185728D01*
X171403Y87928D01*
G37*
X200260Y95600D02*
G36*
X200260Y95600D02*
G75*
G02*
X200596Y96942I2856J-2D01*
G01*
X191582Y87928D01*
X208367D01*
G75*
G02*
X205774Y92003I1905J4075D01*
G01*
G75*
G02*
X214770I4498J0D01*
G01*
G75*
G02*
X212177Y87928I-4498J0D01*
G01*
X218367D01*
G75*
G02*
X215774Y92003I1905J4075D01*
G01*
G75*
G02*
X224770I4498J0D01*
G01*
G75*
G02*
X222177Y87928I-4498J0D01*
G01*
X226302D01*
Y102253D01*
X224763D01*
G75*
G02*
X224770Y102003I-4491J-252D01*
G01*
G75*
G02*
X215774I-4498J0D01*
G01*
G75*
G02*
X215781Y102253I4498J-2D01*
G01*
X214763D01*
G75*
G02*
X214770Y102003I-4493J-245D01*
G01*
G75*
G02*
X208580Y97836I-4498J0D01*
G01*
X205930Y95186D01*
G75*
G02*
X200260Y95600I-2820J414D01*
G01*
G37*
X11329Y112253D02*
G36*
X11329Y112253D02*
Y102253D01*
X20522D01*
G75*
G02*
X25250Y106737I4728J-250D01*
G01*
G75*
G02*
X29978Y102253I0J-4734D01*
G01*
X51522D01*
Y106503D01*
X60022D01*
Y102253D01*
X98750D01*
Y112253D01*
X60022D01*
Y108003D01*
X51522D01*
Y112253D01*
X30000D01*
G75*
G02*
X30006Y112003I-4729J-252D01*
G01*
G75*
G02*
X25272Y107269I-4734J0D01*
G01*
G75*
G02*
X20538Y112003I0J4734D01*
G01*
G75*
G02*
X20544Y112253I4736J-2D01*
G01*
X11329D01*
G37*
X103750D02*
G36*
X103750Y112253D02*
Y102253D01*
X151877D01*
X161877Y112253D01*
X103750D01*
G37*
X156826Y102253D02*
G36*
X156826Y102253D02*
X156987D01*
X166987Y112253D01*
X166826D01*
X156826Y102253D01*
G37*
X174057Y112253D02*
G36*
X174057Y112253D02*
X164057Y102253D01*
X180778D01*
X190778Y112253D01*
X174057D01*
G37*
X185728Y102253D02*
G36*
X185728Y102253D02*
X186493D01*
X196195Y112253D01*
X195728D01*
X185728Y102253D01*
G37*
X213096Y108502D02*
G36*
X213096Y108502D02*
X214296D01*
X216105Y110311D01*
G75*
G02*
X215774Y112003I4167J1693D01*
G01*
G75*
G02*
X215781Y112253I4498J-2D01*
G01*
X214763D01*
G75*
G02*
X214770Y112003I-4490J-245D01*
G01*
G75*
G02*
X213096Y108502I-4498J0D01*
G01*
G37*
X213624Y105002D02*
G36*
X213624Y105002D02*
G75*
G02*
X214763Y102253I-3352J-2999D01*
G01*
X215781D01*
G75*
G02*
X224763I4491J-250D01*
G01*
X226302D01*
Y112253D01*
X224763D01*
G75*
G02*
X224770Y112003I-4491J-252D01*
G01*
G75*
G02*
X218580Y107836I-4498J0D01*
G01*
X216258Y105515D01*
G75*
G02*
X215020Y105002I-1237J1237D01*
G01*
X213624D01*
G37*
X11329Y122003D02*
G36*
X11329Y122003D02*
Y112253D01*
X20544D01*
G75*
G02*
X25272Y116737I4728J-250D01*
G01*
G75*
G02*
X30000Y112253I0J-4734D01*
G01*
X51522D01*
Y116503D01*
X60022D01*
Y112253D01*
X98750D01*
Y122003D01*
X30006D01*
G75*
G02*
X25272Y117269I-4734J0D01*
G01*
G75*
G02*
X20538Y122003I0J4734D01*
G01*
X11329D01*
G37*
X103750D02*
G36*
X103750Y122003D02*
Y112253D01*
X161877D01*
X171627Y122003D01*
X103750D01*
G37*
X166826Y112253D02*
G36*
X166826Y112253D02*
X166987D01*
X176737Y122003D01*
X176576D01*
X166826Y112253D01*
G37*
X183807Y122003D02*
G36*
X183807Y122003D02*
X174057Y112253D01*
X190778D01*
X198500Y119975D01*
Y122003D01*
X183807D01*
G37*
X195728Y112253D02*
G36*
X195728Y112253D02*
X196195D01*
X205654Y122003D01*
X202000D01*
Y119250D01*
G75*
G02*
Y119249I-2051J0D01*
G01*
G75*
G02*
X201487Y118013I-1748J0D01*
G01*
X195728Y112253D01*
G37*
X213670Y116017D02*
G36*
X213670Y116017D02*
G75*
G02*
X212982Y115593I-1235J1233D01*
G01*
G75*
G02*
X214763Y112253I-2710J-3590D01*
G01*
X215781D01*
G75*
G02*
X224763I4491J-250D01*
G01*
X226302D01*
Y122003D01*
X224770D01*
G75*
G02*
X216682Y119293I-4498J0D01*
G01*
G75*
G02*
X216258Y118606I-1657J548D01*
G01*
X213670Y116017D01*
G37*
X11329Y132003D02*
G36*
X11329Y132003D02*
Y122003D01*
X20538D01*
G75*
G02*
X25272Y126737I4734J0D01*
G01*
G75*
G02*
X30006Y122003I0J-4734D01*
G01*
X98750D01*
Y132003D01*
X30006D01*
G75*
G02*
X25272Y127269I-4734J0D01*
G01*
G75*
G02*
X20538Y132003I0J4734D01*
G01*
X11329D01*
G37*
X103750D02*
G36*
X103750Y132003D02*
Y122003D01*
X171627D01*
X181627Y132003D01*
X140272D01*
X130272D01*
X103750D01*
G37*
X176576Y122003D02*
G36*
X176576Y122003D02*
X176737D01*
X185626Y130892D01*
G75*
G02*
X185480Y130907I199J2729D01*
G01*
X176576Y122003D01*
G37*
X193807Y132003D02*
G36*
X193807Y132003D02*
X183807Y122003D01*
X198500D01*
Y126003D01*
G75*
G02*
Y126004I2051J0D01*
G01*
G75*
G02*
X199013Y127241I1748J0D01*
G01*
X203775Y132003D01*
X193807D01*
G37*
X202000Y125278D02*
G36*
X202000Y125278D02*
Y122003D01*
X205654D01*
X205776Y122129D01*
G75*
G02*
X213271Y125356I4496J-126D01*
G01*
Y128651D01*
G75*
G02*
X206413Y129692I-2999J3353D01*
G01*
X202000Y125278D01*
G37*
X216771Y129179D02*
G36*
X216771Y129179D02*
Y124827D01*
G75*
G02*
X224770Y122004I3501J-2824D01*
G01*
Y122003D01*
X226302D01*
Y132003D01*
X224770D01*
Y132003D01*
G75*
G02*
X216771Y129179I-4498J0D01*
G01*
G37*
X11329Y137830D02*
G36*
X11329Y137830D02*
Y132003D01*
X20538D01*
G75*
G02*
X25272Y136737I4734J0D01*
G01*
G75*
G02*
X30006Y132003I0J-4734D01*
G01*
X98750D01*
Y137830D01*
X79770D01*
Y133332D01*
X70774D01*
Y137830D01*
X27507D01*
G75*
G02*
X25272Y137269I-2235J4173D01*
G01*
G75*
G02*
X23037Y137830I0J4734D01*
G01*
X11329D01*
G37*
X103750D02*
G36*
X103750Y137830D02*
Y132003D01*
X130272D01*
Y137830D01*
X103750D01*
G37*
X140272D02*
G36*
X140272Y137830D02*
Y132003D01*
X181627D01*
X183005Y133381D01*
G75*
G02*
X182983Y133735I2820J353D01*
G01*
G75*
G02*
X188676Y133942I2850J0D01*
G01*
X192563Y137830D01*
X140272D01*
G37*
X199634D02*
G36*
X199634Y137830D02*
X193807Y132003D01*
X203775D01*
X205013Y133241D01*
G75*
G02*
X206126Y133749I1237J-1237D01*
G01*
G75*
G02*
X213271Y135356I4146J-1746D01*
G01*
Y136530D01*
X211970Y137830D01*
X211950D01*
G75*
G02*
X208594I-1678J4174D01*
G01*
X199634D01*
G37*
X216771Y137254D02*
G36*
X216771Y137254D02*
Y134827D01*
G75*
G02*
X224770Y132004I3501J-2824D01*
G01*
Y132003D01*
X226302D01*
Y137830D01*
X221950D01*
G75*
G02*
X218594I-1678J4174D01*
G01*
X216674D01*
G75*
G02*
X216771Y137255I-1651J-575D01*
G01*
G75*
G02*
Y137254I-2051J0D01*
G01*
G37*
X11329Y147830D02*
G36*
X11329Y147830D02*
Y137830D01*
X23037D01*
G75*
G02*
X20538Y142003I2235J4173D01*
G01*
G75*
G02*
X25272Y146737I4734J0D01*
G01*
G75*
G02*
X30006Y142003I0J-4734D01*
G01*
G75*
G02*
X27507Y137830I-4734J0D01*
G01*
X70774D01*
Y142328D01*
X79770D01*
Y137830D01*
X98750D01*
Y147830D01*
X79770D01*
G75*
G02*
X70774I-4498J0D01*
G01*
X27507D01*
G75*
G02*
X25272Y147269I-2235J4173D01*
G01*
G75*
G02*
X23037Y147830I0J4734D01*
G01*
X11329D01*
G37*
X103750D02*
G36*
X103750Y147830D02*
Y137830D01*
X130272D01*
Y142003D01*
X135272D01*
X140272D01*
Y137830D01*
X192563D01*
X202563Y147830D01*
X140203D01*
G75*
G02*
X140272Y147004I-4931J-827D01*
G01*
G75*
G02*
X135272Y142003I-5000J0D01*
G01*
G75*
G02*
X130272Y147003I0J5000D01*
G01*
G75*
G02*
X130341Y147830I5000J0D01*
G01*
X103750D01*
G37*
X199634Y137830D02*
G36*
X199634Y137830D02*
X208594D01*
G75*
G02*
X205774Y142003I1678J4174D01*
G01*
G75*
G02*
X214770I4498J0D01*
G01*
G75*
G02*
X214439Y140311I-4498J0D01*
G01*
X216258Y138492D01*
G75*
G02*
X216674Y137830I-1235J-1237D01*
G01*
X218594D01*
G75*
G02*
X215774Y142003I1678J4173D01*
G01*
G75*
G02*
X224770I4498J0D01*
G01*
G75*
G02*
X221950Y137830I-4498J0D01*
G01*
X226302D01*
Y147830D01*
X221950D01*
G75*
G02*
X218594I-1678J4174D01*
G01*
X211950D01*
G75*
G02*
X209396Y147591I-1678J4173D01*
G01*
X199634Y137830D01*
G37*
X211965Y137836D02*
G36*
X211965Y137836D02*
G75*
G02*
X211950Y137830I-1699J4170D01*
G01*
X211970D01*
X211965Y137836D01*
G37*
X11329Y157830D02*
G36*
X11329Y157830D02*
Y147830D01*
X23037D01*
G75*
G02*
X20538Y152003I2235J4173D01*
G01*
G75*
G02*
X25272Y156737I4734J0D01*
G01*
G75*
G02*
X30006Y152003I0J-4734D01*
G01*
G75*
G02*
X27507Y147830I-4734J0D01*
G01*
X70774D01*
G75*
G02*
X79770I4498J0D01*
G01*
X98750D01*
Y157830D01*
X79770D01*
G75*
G02*
X70774I-4498J0D01*
G01*
X27507D01*
G75*
G02*
X25272Y157269I-2235J4173D01*
G01*
G75*
G02*
X23037Y157830I0J4734D01*
G01*
X11329D01*
G37*
X103750D02*
G36*
X103750Y157830D02*
Y147830D01*
X130341D01*
G75*
G02*
X135272Y152003I4931J-827D01*
G01*
G75*
G02*
X136566Y151833I-2J-5008D01*
G01*
X137072Y152338D01*
G75*
G02*
X130272Y157003I-1800J4665D01*
G01*
G75*
G02*
X130341Y157830I5000J0D01*
G01*
X103750D01*
G37*
X140102Y148297D02*
G36*
X140102Y148297D02*
G75*
G02*
X140203Y147830I-4831J-1294D01*
G01*
X202563D01*
X205860Y151127D01*
G75*
G02*
X205774Y152003I4424J878D01*
G01*
G75*
G02*
X214770I4498J0D01*
G01*
G75*
G02*
X211950Y147830I-4498J0D01*
G01*
X218594D01*
G75*
G02*
X215774Y152003I1678J4173D01*
G01*
G75*
G02*
X224770I4498J0D01*
G01*
G75*
G02*
X221950Y147830I-4498J0D01*
G01*
X226302D01*
Y157830D01*
X221950D01*
G75*
G02*
X218594I-1678J4174D01*
G01*
X211950D01*
G75*
G02*
X208594I-1678J4174D01*
G01*
X161389D01*
G75*
G02*
X161511Y157003I-2729J-826D01*
G01*
G75*
G02*
X155811I-2850J0D01*
G01*
G75*
G02*
X155933Y157830I2851J0D01*
G01*
X149634D01*
X140102Y148297D01*
G37*
X140272Y157003D02*
G36*
X140272Y157003D02*
G75*
G02*
X139937Y155204I-5010J2D01*
G01*
X142563Y157830D01*
X140203D01*
G75*
G02*
X140272Y157003I-4931J-827D01*
G01*
G37*
X11329Y167830D02*
G36*
X11329Y167830D02*
Y157830D01*
X23037D01*
G75*
G02*
X20538Y162003I2235J4173D01*
G01*
G75*
G02*
X25272Y166737I4734J0D01*
G01*
G75*
G02*
X30006Y162003I0J-4734D01*
G01*
G75*
G02*
X27507Y157830I-4734J0D01*
G01*
X70774D01*
G75*
G02*
X79770I4498J0D01*
G01*
X98750D01*
Y167830D01*
X79770D01*
G75*
G02*
X70774I-4498J0D01*
G01*
X27507D01*
G75*
G02*
X25272Y167269I-2235J4173D01*
G01*
G75*
G02*
X23037Y167830I0J4734D01*
G01*
X11329D01*
G37*
X103750D02*
G36*
X103750Y167830D02*
Y157830D01*
X130341D01*
G75*
G02*
X135272Y162003I4931J-827D01*
G01*
G75*
G02*
X140203Y157830I0J-5000D01*
G01*
X142563D01*
X151639Y166906D01*
Y167830D01*
X140203D01*
G75*
G02*
X140272Y167003I-4931J-827D01*
G01*
G75*
G02*
X135272Y162003I-5000J0D01*
G01*
G75*
G02*
X130272Y167003I0J5000D01*
G01*
G75*
G02*
X130341Y167830I5000J0D01*
G01*
X103750D01*
G37*
X155907Y164102D02*
G36*
X155907Y164102D02*
X149634Y157830D01*
X155933D01*
G75*
G02*
X156911Y159253I2728J-828D01*
G01*
Y167830D01*
X156639D01*
Y165870D01*
G75*
G02*
Y165869I-2820J0D01*
G01*
G75*
G02*
X155907Y164102I-2498J0D01*
G01*
G37*
X160411Y167830D02*
G36*
X160411Y167830D02*
Y159253D01*
G75*
G02*
X161389Y157830I-1751J-2250D01*
G01*
X208594D01*
G75*
G02*
X205774Y162003I1678J4173D01*
G01*
G75*
G02*
X214770I4498J0D01*
G01*
G75*
G02*
X211950Y157830I-4498J0D01*
G01*
X218594D01*
G75*
G02*
X215774Y162003I1678J4173D01*
G01*
G75*
G02*
X224770I4498J0D01*
G01*
G75*
G02*
X221950Y157830I-4498J0D01*
G01*
X226302D01*
Y167830D01*
X221950D01*
G75*
G02*
X218594I-1678J4174D01*
G01*
X211950D01*
G75*
G02*
X208594I-1678J4174D01*
G01*
X188504D01*
G75*
G02*
X186846I-829J2727D01*
G01*
X168481D01*
X168007Y167356D01*
G75*
G02*
X168030Y167003I-2820J-353D01*
G01*
G75*
G02*
X162330I-2850J0D01*
G01*
Y167004D01*
G75*
G02*
X162452Y167830I2849J0D01*
G01*
X160411D01*
G37*
X11329Y177830D02*
G36*
X11329Y177830D02*
Y167830D01*
X23037D01*
G75*
G02*
X20538Y172003I2235J4173D01*
G01*
G75*
G02*
X25272Y176737I4734J0D01*
G01*
G75*
G02*
X30006Y172003I0J-4734D01*
G01*
G75*
G02*
X27507Y167830I-4734J0D01*
G01*
X70774D01*
G75*
G02*
X79770I4498J0D01*
G01*
X98750D01*
Y177830D01*
X79770D01*
G75*
G02*
X70774I-4498J0D01*
G01*
X27507D01*
G75*
G02*
X25272Y177269I-2235J4173D01*
G01*
G75*
G02*
X23037Y177830I0J4734D01*
G01*
X11329D01*
G37*
X103750D02*
G36*
X103750Y177830D02*
Y167830D01*
X130341D01*
G75*
G02*
X140203I4931J-827D01*
G01*
X151639D01*
Y177830D01*
X103750D01*
G37*
X156639D02*
G36*
X156639Y177830D02*
Y167830D01*
X156911D01*
Y172642D01*
G75*
G02*
Y172643I2051J0D01*
G01*
G75*
G02*
X157424Y173880I1748J0D01*
G01*
X161374Y177830D01*
X156639D01*
G37*
X160411Y171917D02*
G36*
X160411Y171917D02*
Y167830D01*
X162452D01*
G75*
G02*
X165533Y169831I2727J-827D01*
G01*
X173531Y177830D01*
X166324D01*
X160411Y171917D01*
G37*
X177610Y174973D02*
G36*
X177610Y174973D02*
Y174973D01*
G75*
G02*
X182623Y176829I2850J0D01*
G01*
X183624Y177830D01*
X178481D01*
X168481Y167830D01*
X186846D01*
G75*
G02*
X184825Y170557I829J2727D01*
G01*
Y170557D01*
G75*
G02*
X188028Y173385I2850J0D01*
G01*
X192474Y177830D01*
X188574D01*
X184479Y173735D01*
G75*
G02*
X183241Y173223I-1237J1237D01*
G01*
X182710D01*
G75*
G02*
X177610Y174973I-2250J1750D01*
G01*
G37*
X190525Y170557D02*
G36*
X190525Y170557D02*
G75*
G02*
X188504Y167830I-2850J0D01*
G01*
X208594D01*
G75*
G02*
X205774Y172003I1678J4173D01*
G01*
G75*
G02*
X214770I4498J0D01*
G01*
G75*
G02*
X211950Y167830I-4498J0D01*
G01*
X218594D01*
G75*
G02*
X215774Y172003I1678J4173D01*
G01*
G75*
G02*
X224770I4498J0D01*
G01*
G75*
G02*
X221950Y167830I-4498J0D01*
G01*
X226302D01*
Y177830D01*
X221950D01*
G75*
G02*
X218594I-1678J4174D01*
G01*
X211950D01*
G75*
G02*
X208594I-1678J4174D01*
G01*
X197423D01*
X190503Y170910D01*
G75*
G02*
X190525Y170557I-2820J-353D01*
G01*
G37*
X11329Y187830D02*
G36*
X11329Y187830D02*
Y177830D01*
X23037D01*
G75*
G02*
X20538Y182003I2235J4173D01*
G01*
G75*
G02*
X25272Y186737I4734J0D01*
G01*
G75*
G02*
X30006Y182003I0J-4734D01*
G01*
G75*
G02*
X27507Y177830I-4734J0D01*
G01*
X70774D01*
G75*
G02*
X79770I4498J0D01*
G01*
X98750D01*
Y187830D01*
X79770D01*
G75*
G02*
X70774I-4498J0D01*
G01*
X27507D01*
G75*
G02*
X25272Y187269I-2235J4173D01*
G01*
G75*
G02*
X23037Y187830I0J4734D01*
G01*
X11329D01*
G37*
X103750D02*
G36*
X103750Y187830D02*
Y177830D01*
X151639D01*
Y187830D01*
X140272D01*
Y187003D01*
X130272D01*
Y187830D01*
X103750D01*
G37*
X156639D02*
G36*
X156639Y187830D02*
Y177830D01*
X161374D01*
X171374Y187830D01*
X156639D01*
G37*
X166324Y177830D02*
G36*
X166324Y177830D02*
X173531D01*
X183531Y187830D01*
X176324D01*
X166324Y177830D01*
G37*
X178481D02*
G36*
X178481Y177830D02*
X183624D01*
X193624Y187830D01*
X188481D01*
X178481Y177830D01*
G37*
X188574D02*
G36*
X188574Y177830D02*
X192474D01*
X202474Y187830D01*
X198574D01*
X188574Y177830D01*
G37*
X204846Y185253D02*
G36*
X204846Y185253D02*
X197423Y177830D01*
X208594D01*
G75*
G02*
X205774Y182003I1678J4173D01*
G01*
G75*
G02*
X207163Y185253I4500J-1D01*
G01*
X204846D01*
G37*
X214770Y182003D02*
G36*
X214770Y182003D02*
G75*
G02*
X211950Y177830I-4498J0D01*
G01*
X218594D01*
G75*
G02*
X215774Y182003I1678J4173D01*
G01*
G75*
G02*
X224770I4498J0D01*
G01*
G75*
G02*
X221950Y177830I-4498J0D01*
G01*
X226302D01*
Y187830D01*
X221950D01*
G75*
G02*
X218594I-1678J4174D01*
G01*
X218574D01*
X216509Y185766D01*
G75*
G02*
X215271Y185253I-1237J1237D01*
G01*
X213381D01*
G75*
G02*
X214770Y182003I-3111J-3251D01*
G01*
G37*
X11329Y202003D02*
G36*
X11329Y202003D02*
Y187830D01*
X23037D01*
G75*
G02*
X20538Y192003I2235J4173D01*
G01*
G75*
G02*
X25272Y196737I4734J0D01*
G01*
G75*
G02*
X30006Y192003I0J-4734D01*
G01*
G75*
G02*
X27507Y187830I-4734J0D01*
G01*
X70774D01*
G75*
G02*
X79770I4498J0D01*
G01*
X98750D01*
Y202003D01*
X80272D01*
Y197003D01*
X70272D01*
Y202003D01*
X30006D01*
G75*
G02*
X25272Y197269I-4734J0D01*
G01*
G75*
G02*
X20538Y202003I0J4734D01*
G01*
X11329D01*
G37*
X103750D02*
G36*
X103750Y202003D02*
Y187830D01*
X130272D01*
Y197003D01*
X135272D01*
X140272D01*
Y187830D01*
X151639D01*
Y202003D01*
X140272D01*
G75*
G02*
X135272Y197003I-5000J0D01*
G01*
G75*
G02*
X130272Y202003I0J5000D01*
G01*
X103750D01*
G37*
X156639D02*
G36*
X156639Y202003D02*
Y187830D01*
X171374D01*
X185547Y202003D01*
X156639D01*
G37*
X176324Y187830D02*
G36*
X176324Y187830D02*
X183531D01*
X197705Y202003D01*
X190497D01*
X176324Y187830D01*
G37*
X188481D02*
G36*
X188481Y187830D02*
X193624D01*
X206105Y200311D01*
G75*
G02*
X205774Y202003I4167J1693D01*
G01*
X202654D01*
X188481Y187830D01*
G37*
X198574D02*
G36*
X198574Y187830D02*
X202474D01*
X202884Y188241D01*
G75*
G02*
X204122Y188753I1237J-1237D01*
G01*
X207163D01*
G75*
G02*
X205774Y192003I3111J3251D01*
G01*
G75*
G02*
X214770I4498J0D01*
G01*
G75*
G02*
X213381Y188753I-4500J1D01*
G01*
X214547D01*
X216105Y190311D01*
G75*
G02*
X215774Y192003I4167J1693D01*
G01*
G75*
G02*
X224770I4498J0D01*
G01*
G75*
G02*
X221950Y187830I-4498J0D01*
G01*
X226302D01*
Y202003D01*
X224770D01*
G75*
G02*
X215774I-4498J0D01*
G01*
X214770D01*
G75*
G02*
X208580Y197836I-4498J0D01*
G01*
X198574Y187830D01*
G37*
X218580Y187836D02*
G36*
X218580Y187836D02*
X218574Y187830D01*
X218594D01*
G75*
G02*
X218580Y187836I1685J4176D01*
G01*
G37*
X11329Y212003D02*
G36*
X11329Y212003D02*
Y202003D01*
X20538D01*
G75*
G02*
X25272Y206737I4734J0D01*
G01*
G75*
G02*
X30006Y202003I0J-4734D01*
G01*
X70272D01*
Y207003D01*
X75272D01*
X80272D01*
Y202003D01*
X98750D01*
Y206705D01*
G75*
G02*
Y206706I2820J0D01*
G01*
G75*
G02*
X99482Y208472I2498J0D01*
G01*
X103013Y212003D01*
X80272D01*
G75*
G02*
X75272Y207003I-5000J0D01*
G01*
G75*
G02*
X70272Y212003I0J5000D01*
G01*
X30006D01*
G75*
G02*
X25272Y207269I-4734J0D01*
G01*
G75*
G02*
X20538Y212003I0J4734D01*
G01*
X11329D01*
G37*
X103750Y205669D02*
G36*
X103750Y205669D02*
Y202003D01*
X130272D01*
G75*
G02*
X135272Y207003I5000J0D01*
G01*
G75*
G02*
X140272Y202003I0J-5000D01*
G01*
X151639D01*
Y203120D01*
G75*
G02*
Y203121I2820J0D01*
G01*
G75*
G02*
X152371Y204888I2498J0D01*
G01*
X159487Y212003D01*
X140272D01*
G75*
G02*
X135272Y207003I-5000J0D01*
G01*
G75*
G02*
X130272Y212003I0J5000D01*
G01*
X110084D01*
X103750Y205669D01*
G37*
X156639Y202085D02*
G36*
X156639Y202085D02*
Y202003D01*
X185547D01*
X195547Y212003D01*
X166663D01*
X165238Y210578D01*
G75*
G02*
X164757Y210203I-1766J1766D01*
G01*
X156639Y202085D01*
G37*
X190497Y202003D02*
G36*
X190497Y202003D02*
X197705D01*
X206078Y210377D01*
G75*
G02*
X205774Y212003I4197J1627D01*
G01*
X200497D01*
X190497Y202003D01*
G37*
X202654D02*
G36*
X202654Y202003D02*
X205774D01*
G75*
G02*
X214770I4498J0D01*
G01*
X215774D01*
G75*
G02*
X224770I4498J0D01*
G01*
X226302D01*
Y212003D01*
X224770D01*
G75*
G02*
X215774I-4498J0D01*
G01*
X214770D01*
G75*
G02*
X208514Y207863I-4498J0D01*
G01*
X202654Y202003D01*
G37*
X11329Y222003D02*
G36*
X11329Y222003D02*
Y212003D01*
X20538D01*
G75*
G02*
X25272Y216737I4734J0D01*
G01*
G75*
G02*
X30006Y212003I0J-4734D01*
G01*
X70272D01*
G75*
G02*
X75272Y217003I5000J0D01*
G01*
G75*
G02*
X80272Y212003I0J-5000D01*
G01*
X103013D01*
X113013Y222003D01*
X80272D01*
G75*
G02*
X75272Y217003I-5000J0D01*
G01*
G75*
G02*
X70272Y222003I0J5000D01*
G01*
X29978D01*
G75*
G02*
X25250Y217516I-4728J247D01*
G01*
G75*
G02*
X20522Y222003I0J4734D01*
G01*
X11329D01*
G37*
X120084D02*
G36*
X120084Y222003D02*
X110084Y212003D01*
X130272D01*
G75*
G02*
X135272Y217003I5000J0D01*
G01*
G75*
G02*
X140272Y212003I0J-5000D01*
G01*
X159487D01*
X160487Y213003D01*
X151487Y222003D01*
X140272D01*
G75*
G02*
X135272Y217003I-5000J0D01*
G01*
G75*
G02*
X130272Y222003I0J5000D01*
G01*
X120084D01*
G37*
X158558D02*
G36*
X158558Y222003D02*
X164075Y216486D01*
X169592Y222003D01*
X158558D01*
G37*
X176663D02*
G36*
X176663Y222003D02*
X166663Y212003D01*
X195547D01*
X205547Y222003D01*
X176663D01*
G37*
X200497Y212003D02*
G36*
X200497Y212003D02*
X205774D01*
G75*
G02*
X214770I4498J0D01*
G01*
X215774D01*
G75*
G02*
X224770I4498J0D01*
G01*
X226302D01*
Y222003D01*
X224770D01*
G75*
G02*
X215774I-4498J0D01*
G01*
X214770D01*
G75*
G02*
X207206Y218712I-4498J0D01*
G01*
X200497Y212003D01*
G37*
X11329Y232003D02*
G36*
X11329Y232003D02*
Y222003D01*
X20522D01*
G75*
G02*
X20516Y222250I4729J244D01*
G01*
G75*
G02*
X25250Y226984I4734J0D01*
G01*
G75*
G02*
X29984Y222250I0J-4734D01*
G01*
G75*
G02*
X29978Y222003I-4735J-3D01*
G01*
X70272D01*
G75*
G02*
X75272Y227003I5000J0D01*
G01*
G75*
G02*
X80272Y222003I0J-5000D01*
G01*
X113013D01*
X123013Y232003D01*
X80272D01*
G75*
G02*
X75272Y227003I-5000J0D01*
G01*
G75*
G02*
X70272Y232003I0J5000D01*
G01*
X29978D01*
G75*
G02*
X25250Y227516I-4728J247D01*
G01*
G75*
G02*
X20522Y232003I0J4734D01*
G01*
X11329D01*
G37*
X130084D02*
G36*
X130084Y232003D02*
X120084Y222003D01*
X130272D01*
G75*
G02*
X135272Y227003I5000J0D01*
G01*
G75*
G02*
X140272Y222003I0J-5000D01*
G01*
X151487D01*
X141487Y232003D01*
X140272D01*
G75*
G02*
X135272Y227003I-5000J0D01*
G01*
G75*
G02*
X130272Y232003I0J5000D01*
G01*
X130084D01*
G37*
X148557D02*
G36*
X148557Y232003D02*
X158558Y222003D01*
X169592D01*
X179592Y232003D01*
X148557D01*
G37*
X186663D02*
G36*
X186663Y232003D02*
X176663Y222003D01*
X205547D01*
X205780Y222236D01*
G75*
G02*
X214770Y222004I4492J-233D01*
G01*
Y222003D01*
X215774D01*
G75*
G02*
X217772Y225743I4498J0D01*
G01*
Y228264D01*
G75*
G02*
X215774Y232003I2501J3740D01*
G01*
X214770D01*
Y227505D01*
X205774D01*
Y232003D01*
X186663D01*
G37*
X222772Y228264D02*
G36*
X222772Y228264D02*
Y225743D01*
G75*
G02*
X224770Y222003I-2500J-3739D01*
G01*
X226302D01*
Y232003D01*
X224770D01*
G75*
G02*
X222772Y228264I-4498J0D01*
G01*
G37*
X11329Y251176D02*
G36*
X11329Y251176D02*
Y232003D01*
X20522D01*
G75*
G02*
X20516Y232250I4729J244D01*
G01*
G75*
G02*
X25250Y236984I4734J0D01*
G01*
G75*
G02*
X29984Y232250I0J-4734D01*
G01*
G75*
G02*
X29978Y232003I-4735J-3D01*
G01*
X70272D01*
G75*
G02*
X80272I5000J0D01*
G01*
X123013D01*
X130961Y239951D01*
G75*
G02*
X132731Y240683I1767J-1767D01*
G01*
X138840D01*
G75*
G02*
X140610Y239951I3J-2499D01*
G01*
X148557Y232003D01*
X179592D01*
X186858Y239270D01*
G75*
G02*
X188628Y240002I1767J-1767D01*
G01*
X214771D01*
G75*
G02*
X216541Y239270I3J-2499D01*
G01*
X219396Y236415D01*
G75*
G02*
X224770Y232003I876J-4412D01*
G01*
X226302D01*
Y251176D01*
X222034D01*
G75*
G02*
X208510I-6762J0D01*
G01*
X154780D01*
Y249208D01*
G75*
G02*
X148343Y242771I-6437J0D01*
G01*
X89288D01*
G75*
G02*
X82851Y249208I0J6437D01*
G01*
Y251176D01*
X29120D01*
G75*
G02*
X15597I-6762J0D01*
G01*
X11329D01*
G37*
X130084Y232003D02*
G36*
X130084Y232003D02*
X130272D01*
G75*
G02*
Y232013I4661J5D01*
G01*
G75*
G02*
X130276Y232195I4656J0D01*
G01*
X130084Y232003D01*
G37*
X140272Y232004D02*
G36*
X140272Y232004D02*
Y232003D01*
X141487D01*
X140066Y233424D01*
G75*
G02*
X140272Y232004I-4794J-1420D01*
G01*
G37*
X189661Y235002D02*
G36*
X189661Y235002D02*
X186663Y232003D01*
X205774D01*
Y235002D01*
X189661D01*
G37*
X214770Y233970D02*
G36*
X214770Y233970D02*
Y232003D01*
X215774D01*
Y232004D01*
G75*
G02*
X215860Y232880I4498J0D01*
G01*
X214770Y233970D01*
G37*
X11329Y255288D02*
G36*
X11329Y255288D02*
Y251176D01*
X15597D01*
G75*
G02*
X29120I6762J0D01*
G01*
X82851D01*
Y261019D01*
G75*
G03*
X82224Y262206I-1437J0D01*
G01*
X18247D01*
G75*
G03*
X11329Y255288I2143J-9061D01*
G01*
G37*
X154780Y261019D02*
G36*
X154780Y261019D02*
Y251176D01*
X208510D01*
G75*
G02*
X222034I6762J0D01*
G01*
X226302D01*
Y255288D01*
G75*
G03*
X219383Y262206I-9061J-2143D01*
G01*
X155407D01*
G75*
G03*
X154780Y261019I810J-1187D01*
G01*
G37*
D02*
D71*
X187772Y52003D02*
X210272D01*
X0Y0D02*
M02*
