G05
M48
;#@! TF.GenerationSoftware,DesignSpark,DesignSpark PCB PRO,10.1.5344
;#@! TF.CreationDate,2022-07-31T19:02:38+00:00*
;#@! TF.FileFunction,Plated,1,2,PTH
;FILE_FORMAT=3:5
;TYPE=PLATED
INCH,TZ
FMAT,2
T1C000.01600
T2C000.03500
T3C000.04331
T4C000.04646
T5C000.05000
T6C000.11024
%
T001
X1.58661Y1.57003
X1.65180Y1.67003
X1.80460Y1.74973
X1.85833Y1.33735
X1.87675Y1.70557
X1.87772Y0.52003
X2.03110Y0.95600
T002
X0.25272Y0.42003
X0.25272Y0.52003
X0.25272Y0.62003
X0.35272Y0.42003
X0.35272Y0.52003
X0.35272Y0.62003
X0.45272Y0.42003
X0.45272Y0.52003
X0.45272Y0.62003
X0.55772Y1.02253
X0.55772Y1.12253
T003
X0.75272Y0.20250
X0.75272Y0.30250
X0.75272Y0.40250
X0.75272Y0.50250
X0.75272Y0.60250
X0.75272Y0.70250
X0.75272Y1.37830
X0.75272Y1.47830
X0.75272Y1.57830
X0.75272Y1.67830
X0.75272Y1.77830
X0.75272Y1.87830
X1.35272Y0.20250
X1.35272Y0.30250
X1.35272Y0.40250
X1.35272Y0.50250
X1.35272Y0.60250
X1.35272Y0.70250
X2.10272Y0.42003
X2.10272Y0.52003
X2.10272Y0.62003
X2.10272Y0.72003
X2.10272Y0.82003
X2.10272Y0.92003
X2.10272Y1.02003
X2.10272Y1.12003
X2.10272Y1.22003
X2.10272Y1.32003
X2.10272Y1.42003
X2.10272Y1.52003
X2.10272Y1.62003
X2.10272Y1.72003
X2.10272Y1.82003
X2.10272Y1.92003
X2.10272Y2.02003
X2.10272Y2.12003
X2.10272Y2.22003
X2.10272Y2.32003
X2.20272Y0.42003
X2.20272Y0.52003
X2.20272Y0.62003
X2.20272Y0.72003
X2.20272Y0.82003
X2.20272Y0.92003
X2.20272Y1.02003
X2.20272Y1.12003
X2.20272Y1.22003
X2.20272Y1.32003
X2.20272Y1.42003
X2.20272Y1.52003
X2.20272Y1.62003
X2.20272Y1.72003
X2.20272Y1.82003
X2.20272Y1.92003
X2.20272Y2.02003
X2.20272Y2.12003
X2.20272Y2.22003
X2.20272Y2.32003
T004
X0.25250Y1.02003
X0.25250Y2.22250
X0.25250Y2.32250
X0.25272Y1.12003
X0.25272Y1.22003
X0.25272Y1.32003
X0.25272Y1.42003
X0.25272Y1.52003
X0.25272Y1.62003
X0.25272Y1.72003
X0.25272Y1.82003
X0.25272Y1.92003
X0.25272Y2.02003
X0.25272Y2.12003
T005
X0.75272Y2.02003
X0.75272Y2.12003
X0.75272Y2.22003
X0.75272Y2.32003
X1.35272Y1.37003
X1.35272Y1.47003
X1.35272Y1.57003
X1.35272Y1.67003
X1.35272Y1.92003
X1.35272Y2.02003
X1.35272Y2.12003
X1.35272Y2.22003
X1.35272Y2.32003
T006
X0.22359Y0.22830
X0.22359Y2.51176
X2.15272Y0.22830
X2.15272Y2.51176
M30
